<svg width="1019" height="784" viewBox="0 0 1019 784" fill="none" xmlns="http://www.w3.org/2000/svg">
<g filter="url(#filter0_d_2_4)">
<path d="M1019.46 0H401.457H245.457C214.957 0 197.5 7.62939e-06 171 16C141.894 33.5735 130 16 70.5 32.5C17.9404 47.0753 84.4569 76 27.9569 105C-28.5431 134 27.9569 220.5 82.5 210.5C130.739 201.656 169.5 236.5 93.5 297.5C17.5 358.5 113.5 445 184 417C254.5 389 266 331.5 330.5 503.5C437.562 789 484 580 608.5 517C730.646 455.191 698.5 500.5 824 707C924.4 872.2 1019.46 707 1019.46 532V0Z" fill="url(#paint0_linear_2_4)" shape-rendering="crispEdges"/>
</g>
<defs>
<filter id="filter0_d_2_4" x="0.504395" y="0" width="1022.95" height="783.184" filterUnits="userSpaceOnUse" color-interpolation-filters="sRGB">
<feFlood flood-opacity="0" result="BackgroundImageFix"/>
<feColorMatrix in="SourceAlpha" type="matrix" values="0 0 0 0 0 0 0 0 0 0 0 0 0 0 0 0 0 0 127 0" result="hardAlpha"/>
<feOffset dy="4"/>
<feGaussianBlur stdDeviation="2"/>
<feComposite in2="hardAlpha" operator="out"/>
<feColorMatrix type="matrix" values="0 0 0 0 0 0 0 0 0 0 0 0 0 0 0 0 0 0 0.25 0"/>
<feBlend mode="normal" in2="BackgroundImageFix" result="effect1_dropShadow_2_4"/>
<feBlend mode="normal" in="SourceGraphic" in2="effect1_dropShadow_2_4" result="shape"/>
</filter>
<linearGradient id="paint0_linear_2_4" x1="1019" y1="-0.000105155" x2="101" y2="963.5" gradientUnits="userSpaceOnUse">
<stop offset="0.223958" stop-color="#5B00CF"/>
<stop offset="0.765625" stop-color="#CC1149"/>
<stop offset="1" stop-color="#FF00C7" stop-opacity="0"/>
<stop offset="1" stop-color="#F723C8" stop-opacity="0"/>
</linearGradient>
</defs>
</svg>
