<?xml version="1.0" standalone="no"?><svg xmlns="http://www.w3.org/2000/svg" viewBox="0 0 1440 320"><path fill="#202424" fill-opacity="1" d="M0,160L24,160C48,160,96,160,144,138.7C192,117,240,75,288,96C336,117,384,203,432,213.3C480,224,528,160,576,128C624,96,672,96,720,117.3C768,139,816,181,864,176C912,171,960,117,1008,106.7C1056,96,1104,128,1152,138.7C1200,149,1248,139,1296,112C1344,85,1392,43,1416,21.3L1440,0L1440,320L1416,320C1392,320,1344,320,1296,320C1248,320,1200,320,1152,320C1104,320,1056,320,1008,320C960,320,912,320,864,320C816,320,768,320,720,320C672,320,624,320,576,320C528,320,480,320,432,320C384,320,336,320,288,320C240,320,192,320,144,320C96,320,48,320,24,320L0,320Z"></path></svg>